<svg width="852" height="149" viewBox="0 0 852 149" fill="none" xmlns="http://www.w3.org/2000/svg">
<path d="M824.805 137.894H802.648L829.517 11.104H851.674L824.805 137.894Z" fill="white"/>
<path d="M748.884 11.104H772.089L793.2 137.894H770.693L766.68 111.486H713.989L699.334 137.894H675.431L748.884 11.104ZM724.109 93.1256H763.889L755.515 36.8134L724.109 93.1256Z" fill="white"/>
<path d="M639.864 18.9734H660.625V43.8062H679.468V58.8464H660.625V110.087C660.625 119.706 662.894 121.979 671.793 121.979H679.296V137.894H663.942C643.877 137.894 639.866 132.472 639.866 113.235V58.8464H625.907V43.8062H639.866V18.9734H639.864Z" fill="white"/>
<path d="M619.885 64.9685C616.397 64.6183 613.08 64.4442 609.942 64.4442C596.855 64.4442 589.354 69.6897 589.354 88.5785V137.896H568.592V43.8082H589.004V60.5975C594.064 50.1044 603.137 43.8082 614.478 43.634C616.049 43.634 618.318 43.8082 619.887 43.9843V64.9705L619.885 64.9685Z" fill="white"/>
<path d="M481.531 96.7981C482.926 114.286 495.14 122.856 507.006 122.856C517.822 122.856 526.372 118.483 530.036 109.739H550.448C546.086 124.779 532.129 140.17 507.877 140.17C477.693 140.17 460.42 117.086 460.42 90.1536C460.42 61.8224 479.788 41.7108 506.481 41.7108C535.271 41.7108 553.242 65.1447 551.497 96.7981H481.533H481.531ZM481.531 81.5818H530.384C529.861 66.8919 518.695 57.9718 506.481 57.9718C496.712 57.9718 483.276 63.7437 481.531 81.5818Z" fill="white"/>
<path d="M379.954 11.104V56.3987C385.537 47.1304 395.309 41.7088 407.87 41.7088C430.029 41.7088 448.698 60.7717 448.698 90.8501C448.698 121.105 430.031 140.168 407.87 140.168C395.309 140.168 385.537 134.746 379.954 125.478V137.894H359.193V11.104H379.954ZM403.333 123.204C417.116 123.204 427.062 110.788 427.062 90.8501C427.062 71.0887 417.118 58.6723 403.333 58.6723C389.724 58.6723 379.082 69.1654 379.082 90.8501C379.082 112.535 389.724 123.204 403.333 123.204Z" fill="white"/>
<path d="M341.671 11.104V32.0903H320.91V11.104H341.671ZM341.671 43.8082V137.896H320.91V43.8082H341.671Z" fill="white"/>
<path d="M245.461 119.183H309.143V137.896H223.302V11.104H245.459V119.181L245.461 119.183Z" fill="white"/>
<path d="M106.511 0.000488281H56.8031V42.5638H106.511V92.3899H148.977V42.5638V0.000488281H106.511Z" fill="white"/>
<path d="M99.2671 106.434L56.8031 149H106.511L148.977 106.434H99.2671Z" fill="white"/>
<path d="M81.6561 106.434H42.7896V0.000488281L0.325653 42.5638V148.999H39.1921L81.6561 106.434Z" fill="white"/>
</svg>
