<svg width="1383" height="228" viewBox="0 0 1383 228" fill="none" xmlns="http://www.w3.org/2000/svg">
<g clip-path="url(#clip0_7012_565)">
<g clip-path="url(#clip1_7012_565)">
<path d="M170.448 76.8951C191.819 76.8951 209 59.7142 209 38.4475C209 17.1809 191.714 0 170.448 0C149.076 0 131.896 17.1809 131.896 38.4475C131.896 59.7142 149.076 76.8951 170.448 76.8951Z" fill="#141421"/>
<path d="M38.5528 208.057C59.9241 208.057 77.1051 190.876 77.1051 169.609C77.1051 148.343 59.8194 131.162 38.5528 131.162C17.1814 131.162 0.000473685 148.343 0.000473685 169.609C-0.104288 190.876 17.1814 208.057 38.5528 208.057Z" fill="#141421"/>
<path d="M143.106 11.3141C106.544 -3.77156 62.8581 3.45699 33.1058 32.9998C3.35346 62.6473 -3.8751 106.019 11.2106 142.476L143.106 11.3141Z" fill="#141421"/>
<path d="M65.7917 196.847C102.354 211.933 146.039 204.705 175.792 175.162C205.544 145.514 212.772 102.143 197.687 65.6858L65.7917 196.847Z" fill="#141421"/>
</g>
</g>
<path d="M788.474 74.1453L808.044 93.7353V181.998H771.485V108.159L766.754 103.423H757.722L743.958 117.2V181.998H707.399V27H743.958V91.152L760.948 74.1453H788.474Z" fill="#141421"/>
<path d="M672.129 74.0967L695.14 97.1311V151.381L664.602 181.95H629.333V227.157H592.774V74.0967H625.032L625.462 91.1034L642.451 74.0967H672.129ZM646.322 152.672L658.58 140.401V111.555L650.408 103.374H639.226L629.333 113.277V152.672H646.322Z" fill="#141421"/>
<path d="M557.238 74.0967L580.249 97.1311V138.679H513.152V149.443L518.743 155.04H544.765L558.958 140.832L580.249 162.144L560.464 181.95H499.604L476.593 158.915V97.1311L499.604 74.0967H557.238ZM513.152 116.506H543.69V106.603L538.098 101.006H518.743L513.152 106.603V116.506Z" fill="#141421"/>
<path d="M460.657 152.721H471.84V181.998H441.517L418.292 158.748V27H454.851V146.908L460.657 152.721Z" fill="#141421"/>
<path d="M372.655 181.99L364.052 156.156H311.149L302.547 181.99H263.407L318.891 35.6023H358.246L413.73 181.99H372.655ZM321.902 124.296H353.3L337.601 77.1504L321.902 124.296Z" fill="#141421"/>
<g clip-path="url(#clip2_7012_565)">
<path d="M1345.95 27.001H1382.51V181.999H1350.26L1349.83 164.992L1332.84 181.999H1303.16L1280.15 158.965V104.715L1310.69 74.1463H1345.95V27.001ZM1324.88 152.722H1336.06L1345.95 142.819V103.424H1328.97L1316.71 115.694V144.541L1324.88 152.722Z" fill="#141421"/>
<path d="M1231.36 74.0977H1267.92V181.951H1235.66L1235.23 164.944L1218.24 181.951H1186.84L1167.27 162.361V74.0977H1203.83V147.937L1208.56 152.673H1221.47L1231.36 142.77V74.0977Z" fill="#141421"/>
<path d="M1132.59 74.0977L1155.6 97.1321V158.916L1132.59 181.951H1075.82L1052.81 158.916V97.1321L1075.82 74.0977H1132.59ZM1113.45 152.673L1119.04 147.076V108.972L1113.45 103.375H1094.96L1089.37 108.972V147.076L1094.96 152.673H1113.45Z" fill="#141421"/>
<path d="M1036.87 152.722H1048.05V181.999H1017.73L994.506 158.749V27.001H1031.07V146.909L1036.87 152.722Z" fill="#141421"/>
<path d="M961.41 131.186L987.861 157.664L963.56 181.99H890.872L861.84 152.928V64.6654L890.872 35.6033H962.055L986.356 59.9294L959.904 86.4082L943.56 70.0473H909.582L900.55 79.0889V138.505L909.582 147.546H945.066L961.41 131.186Z" fill="#141421"/>
</g>
<defs>
<clipPath id="clip0_7012_565">
<rect width="209" height="209" fill="white"/>
</clipPath>
<clipPath id="clip1_7012_565">
<rect width="209" height="209" fill="white"/>
</clipPath>
<clipPath id="clip2_7012_565">
<rect width="520.674" height="154.998" fill="white" transform="translate(861.84 27.001)"/>
</clipPath>
</defs>
</svg>
